# File created by Blade
# Date/Time:  Thu Jan 15 19:03:44 2015
#---------------------------------------------------------
:version 1.10
:name HOM
:units
  mass 1.0
  length 1.000000
  angle deg
:documentation
     Acclaim Skeleton File
:root
   axis xyz
   order TX TY TZ RX RY RZ
   position 0.000000 0.000000 0.000000
   orientation 0 0 0
:bonedata
   begin
      id 1
      name Spine_dum
      direction 0.000000 1.000000 0.000000
      length 4.354460
      axis 0.0 0.0 0.0 xyz
   end
   begin
      id 2
      name LeftUpLeg_dum
      direction 1.000000 0.000000 0.000000
      length 4.291077
      axis 0.0 0.0 0.0 xyz
   end
   begin
      id 3
      name RightUpLeg_dum
      direction -1.000000 0.000000 0.000000
      length 4.291077
      axis 0.0 0.0 0.0 xyz
   end
   begin
      id 4
      name Spine
      direction 0.000000 1.000000 0.000000
      length 0.000000
      axis 0.0 0.0 0.0 xyz
      dof rx ry rz
   end
   begin
      id 5
      name Spine_dum1
      direction 0.000000 1.000000 0.000000
      length 16.581769
      axis 0.0 0.0 0.0 xyz
   end
   begin
      id 6
      name Spine_dum2
      direction 0.000000 1.000000 0.000000
      length 12.903700
      axis 0.0 0.0 0.0 xyz
   end
   begin
      id 7
      name Spine_dum3
      direction 0.000000 1.000000 0.000000
      length 12.903700
      axis 0.0 0.0 0.0 xyz
   end
   begin
      id 8
      name Head
      direction 0.000000 1.000000 0.000000
      length 4.527550
      axis 0.0 0.0 0.0 xyz
      dof rx ry rz
   end
   begin
      id 9
      name LeftShoulder
      direction 1.000000 0.000000 0.000000
      length 6.942033
      axis 0.0 0.0 -90.0 xyz
      dof rx ry rz
   end
   begin
      id 10
      name LeftArm
      direction 1.000000 0.000000 0.000000
      length 11.010391
      axis 0.0 0.0 -90.0 xyz
      dof rx ry rz
   end
   begin
      id 11
      name LeftForeArm
      direction 1.000000 0.000000 0.000000
      length 8.054994
      axis 0.0 0.0 -90.0 xyz
      dof rz ry rx
   end
   begin
      id 12
      name LeftHand
      direction 0.000000 0.000000 0.000000
      length 0.000000
      axis 0.0 0.0 -90.0 xyz
      dof rx ry rz
   end
   begin
      id 13
      name LeftHand_dum1
      direction 0.000000 0.000000 0.000000
      length 0.000000
      axis 0.0 0.0 -90.0 xyz
   end
   begin
      id 14
      name LeftHand_dum2
      direction 1.000000 0.000000 0.000000
      length 3.937000
      axis 0.0 0.0 -90.0 xyz
   end
   begin
      id 15
      name LeftHandThumb1
      direction 0.000000 0.000000 1.000000
      length 3.937000
      axis 0.0 0.0 -90.0 xyz
      dof rx ry rz
   end
   begin
      id 16
      name RightShoulder
      direction -1.000000 0.000000 0.000000
      length 6.942033
      axis 0.0 0.0 90.0 xyz
      dof rx ry rz
   end
   begin
      id 17
      name RightArm
      direction -1.000000 0.000000 0.000000
      length 11.010391
      axis 0.0 0.0 90.0 xyz
      dof rx ry rz
   end
   begin
      id 18
      name RightForeArm
      direction -1.000000 0.000000 0.000000
      length 8.054994
      axis 0.0 0.0 90.0 xyz
      dof rz ry rx
   end
   begin
      id 19
      name RightHand
      direction 0.000000 0.000000 0.000000
      length 0.000000
      axis 0.0 0.0 90.0 xyz
      dof rx ry rz
   end
   begin
      id 20
      name RightHand_dum1
      direction 0.000000 0.000000 0.000000
      length 0.000000
      axis 0.0 0.0 90.0 xyz
   end
   begin
      id 21
      name RightHand_dum2
      direction -1.000000 0.000000 0.000000
      length 3.937000
      axis 0.0 0.0 90.0 xyz
   end
   begin
      id 22
      name RightHandThumb1
      direction 0.000000 0.000000 1.000000
      length 3.937000
      axis 0.0 0.0 90.0 xyz
      dof rx ry rz
   end
   begin
      id 23
      name LeftUpLeg
      direction 0.000000 -1.000000 0.000000
      length 17.039958
      axis 0.0 0.0 0.0 xyz
      dof rx ry rz
   end
   begin
      id 24
      name LeftLeg
      direction 0.000000 -1.000000 0.000000
      length 16.939743
      axis 0.0 0.0 0.0 xyz
      dof rx ry rz
   end
   begin
      id 25
      name LeftFoot
      direction 0.000000 -0.258819 0.965926
      length 5.235044
      axis 15.0 0.0 0.0 xyz
      dof rx ry rz
   end
   begin
      id 26
      name LeftToeBase
      direction 0.000000 0.000000 1.000000
      length 2.952750
      axis 0.0 0.0 0.0 xyz
      dof rx ry rz
   end
   begin
      id 27
      name RightUpLeg
      direction 0.000000 -1.000000 0.000000
      length 17.039958
      axis 0.0 0.0 0.0 xyz
      dof rx ry rz
   end
   begin
      id 28
      name RightLeg
      direction 0.000000 -1.000000 0.000000
      length 16.939743
      axis 0.0 0.0 0.0 xyz
      dof rx ry rz
   end
   begin
      id 29
      name RightFoot
      direction 0.000000 -0.258819 0.965926
      length 5.235044
      axis 15.0 0.0 0.0 xyz
      dof rx ry rz
   end
   begin
      id 30
      name RightToeBase
      direction 0.000000 0.000000 1.000000
      length 2.952750
      axis 0.0 0.0 0.0 xyz
      dof rx ry rz
   end
:hierarchy
   begin
      root Spine_dum LeftUpLeg_dum RightUpLeg_dum
      Spine_dum Spine
      LeftUpLeg_dum LeftUpLeg
      RightUpLeg_dum RightUpLeg
      Spine Spine_dum1 Spine_dum2 Spine_dum3
      Spine_dum1 Head
      Spine_dum2 LeftShoulder
      Spine_dum3 RightShoulder
      LeftShoulder LeftArm
      LeftArm LeftForeArm
      LeftForeArm LeftHand
      LeftHand LeftHand_dum1 LeftHand_dum2
      LeftHand_dum1 LeftHandThumb1
      RightShoulder RightArm
      RightArm RightForeArm
      RightForeArm RightHand
      RightHand RightHand_dum1 RightHand_dum2
      RightHand_dum1 RightHandThumb1
      LeftUpLeg LeftLeg
      LeftLeg LeftFoot
      LeftFoot LeftToeBase
      RightUpLeg RightLeg
      RightLeg RightFoot
      RightFoot RightToeBase
   end

# File created by Blade
# Date/Time:  Thu Jan 15 19:03:33 2015
# Frame Rate: 120.000 fps
#------------------------------------------------------
:FULLY-SPECIFIED
:DEGREES
2329
root -4.311750 35.565040 -5.491958 -173.177143 26.490469 -175.337634
Spine -9.061760 27.597684 -14.965165
Head 4.927393 -2.693107 20.296626
LeftShoulder -6.699209 19.773528 3.830878
LeftArm 11.611407 -4.629283 -76.900886
LeftForeArm -0.000000 -2.210545 16.097772
LeftHand 4.476009 -0.000000 1.979358
LeftHandThumb1 -26.253704 33.147579 0.000000
RightShoulder -19.026618 -9.867969 10.238042
RightArm 20.815113 -31.835950 64.626844
RightForeArm -0.000000 -34.776813 38.028313
RightHand 5.383066 -0.000000 11.786444
RightHandThumb1 -24.326973 -32.862282 -0.000000
LeftUpLeg -19.287396 17.359365 -7.264067
LeftLeg 18.828135 -0.000000 -0.000000
LeftFoot -20.834692 25.410951 -11.225995
LeftToeBase 18.034597 -0.000000 -0.000000
RightUpLeg 7.908604 -7.735488 11.135409
RightLeg 20.179836 -0.000000 -0.000000
RightFoot 9.525149 -26.135597 -4.714584
RightToeBase -25.970956 -0.000000 0.000000
2330
root -4.292466 35.555642 -5.638025 -173.033361 26.505655 -175.593643
Spine -9.536118 27.424117 -15.351387
Head 5.098598 -2.676412 20.141411
LeftShoulder -6.726725 19.698628 3.756365
LeftArm 11.869427 -4.639423 -76.555312
LeftForeArm -0.000000 -2.154254 16.258854
LeftHand 4.479883 -0.000000 1.899267
LeftHandThumb1 -26.253704 33.147579 0.000000
RightShoulder -19.009429 -9.936928 10.208026
RightArm 20.528245 -31.968583 64.821753
RightForeArm 0.000000 -34.727494 37.996024
RightHand 5.542636 -0.000000 12.004014
RightHandThumb1 -24.326973 -32.862282 -0.000000
LeftUpLeg -18.697906 17.142288 -7.422725
LeftLeg 17.924302 -0.000000 -0.000000
LeftFoot -20.914515 24.995043 -10.931020
LeftToeBase 18.198381 -0.000000 -0.000000
RightUpLeg 7.749939 -7.515946 10.911599
RightLeg 20.333663 -0.000000 -0.000000
RightFoot 9.801425 -26.371463 -4.803021
RightToeBase -26.226175 -0.000000 0.000000
2331
root -4.278355 35.549074 -5.784754 -172.888576 26.525902 -175.917016
Spine -10.022146 27.260871 -15.819420
Head 5.206867 -2.705655 19.989663
LeftShoulder -6.724764 19.577486 3.617586
LeftArm 12.126071 -4.797758 -76.186555
LeftForeArm 0.000000 -2.011236 16.364015
LeftHand 4.560296 -0.000000 1.824630
LeftHandThumb1 -26.253704 33.147579 0.000000
RightShoulder -19.036075 -9.901202 10.161689
RightArm 20.201457 -32.377966 64.860618
RightForeArm -0.000000 -34.362030 38.025672
RightHand 5.488356 -0.000000 12.121800
RightHandThumb1 -24.326973 -32.862282 -0.000000
LeftUpLeg -18.165768 16.960505 -7.718993
LeftLeg 16.930778 -0.000000 -0.000000
LeftFoot -20.954154 24.818356 -10.890311
LeftToeBase 18.296295 -0.000000 -0.000000
RightUpLeg 7.484132 -7.316572 10.615623
RightLeg 20.635358 -0.000000 -0.000000
RightFoot 10.107482 -26.478602 -4.953658
RightToeBase -26.832827 -0.000000 0.000000
2332
root -4.266568 35.546571 -5.936582 -172.802986 26.496894 -176.303210
Spine -10.445620 27.032151 -16.311549
Head 5.326558 -2.746217 19.880718
LeftShoulder -6.744303 19.410672 3.407608
LeftArm 12.353766 -4.877628 -75.718512
LeftForeArm 0.000000 -1.982565 16.468207
LeftHand 4.498497 0.000000 1.810483
LeftHandThumb1 -26.253704 33.147579 0.000000
RightShoulder -19.018894 -9.847567 10.139578
RightArm 19.705198 -32.382917 65.191877
RightForeArm -0.000000 -34.241594 37.980485
RightHand 5.539872 -0.000000 12.159421
RightHandThumb1 -24.326973 -32.862282 -0.000000
LeftUpLeg -17.645191 16.746196 -8.100497
LeftLeg 15.906917 -0.000000 -0.000000
LeftFoot -20.827573 24.816968 -10.633395
LeftToeBase 18.575331 -0.000000 -0.000000
RightUpLeg 7.216574 -7.185857 10.244645
RightLeg 20.995268 -0.000000 -0.000000
RightFoot 10.334033 -26.617197 -4.902041
RightToeBase -27.220920 -0.000000 0.000000
2333
root -4.253798 35.549856 -6.096902 -172.856526 26.312068 -176.745443
Spine -10.660448 26.651459 -16.743655
Head 5.437545 -2.718185 19.760737
LeftShoulder -6.830573 19.219355 3.079806
LeftArm 12.615810 -4.943640 -75.161702
LeftForeArm -0.000000 -2.086378 16.542294
LeftHand 4.500543 -0.000000 1.843787
LeftHandThumb1 -26.253704 33.147579 0.000000
RightShoulder -18.992370 -9.778160 10.148343
RightArm 19.270972 -32.423568 65.415748
RightForeArm 0.000000 -34.056180 37.833401
RightHand 5.749350 -0.000000 12.261697
RightHandThumb1 -24.326973 -32.862282 -0.000000
LeftUpLeg -17.037927 16.521201 -8.537534
LeftLeg 14.875546 -0.000000 -0.000000
LeftFoot -20.484289 25.012053 -10.349020
LeftToeBase 18.460837 -0.000000 -0.000000
RightUpLeg 7.056493 -7.274184 9.805220
RightLeg 21.342081 -0.000000 -0.000000
RightFoot 10.682287 -26.710959 -4.828121
RightToeBase -27.762854 -0.000000 0.000000
2334
root -4.236235 35.558407 -6.253633 -172.936210 26.019706 -177.228714
Spine -10.809428 26.216570 -17.219922
Head 5.478029 -2.765762 19.702121
LeftShoulder -6.892967 18.980175 2.754352
LeftArm 12.916087 -4.921512 -74.535403
LeftForeArm 0.000000 -2.313226 16.540597
LeftHand 4.448107 -0.000000 1.858582
LeftHandThumb1 -26.253704 33.147579 0.000000
RightShoulder -19.026540 -9.670468 10.171099
RightArm 18.865779 -32.491905 65.624080
RightForeArm -0.000000 -33.810302 37.652954
RightHand 5.752991 -0.000000 12.314367
RightHandThumb1 -24.326973 -32.862282 -0.000000
LeftUpLeg -16.505307 16.331787 -9.011990
LeftLeg 14.011529 -0.000000 -0.000000
LeftFoot -20.106222 25.035642 -10.270182
LeftToeBase 18.160256 -0.000000 -0.000000
RightUpLeg 6.869958 -7.449283 9.349694
RightLeg 21.739305 -0.000000 -0.000000
RightFoot 11.044097 -26.776833 -4.699910
RightToeBase -28.282273 -0.000000 0.000000
2335
root -4.224379 35.571126 -6.415132 -172.989923 25.791025 -177.677294
Spine -10.993519 25.826916 -17.663583
Head 5.576681 -2.821381 19.644639
LeftShoulder -6.970727 18.750207 2.388799
LeftArm 13.211423 -4.826141 -73.894469
LeftForeArm -0.000000 -2.554929 16.514571
LeftHand 4.406802 -0.000000 2.078150
LeftHandThumb1 -26.253704 33.147579 0.000000
RightShoulder -19.008899 -9.552744 10.177064
RightArm 18.364438 -32.449886 65.890647
RightForeArm 0.000000 -33.521876 37.439782
RightHand 5.855629 -0.000000 12.513485
RightHandThumb1 -24.326973 -32.862282 -0.000000
LeftUpLeg -16.026036 16.418217 -9.507628
LeftLeg 13.245098 -0.000000 -0.000000
LeftFoot -19.735810 24.767993 -10.142981
LeftToeBase 17.972287 -0.000000 -0.000000
RightUpLeg 6.629162 -7.588693 8.886997
RightLeg 22.221996 -0.000000 -0.000000
RightFoot 11.433958 -26.796356 -4.421467
RightToeBase -28.988941 -0.000000 0.000000
2336
root -4.205181 35.583635 -6.569615 -173.077711 25.460071 -178.089674
Spine -11.049044 25.368295 -18.031959
Head 5.644160 -2.900889 19.562674
LeftShoulder -7.006585 18.554234 2.056233
LeftArm 13.639111 -5.506153 -73.563538
LeftForeArm -0.000000 -2.179702 16.386041
LeftHand 4.448491 -0.000000 2.028338
LeftHandThumb1 -26.253704 33.147579 0.000000
RightShoulder -18.978215 -9.425961 10.069045
RightArm 17.763266 -32.290208 66.427321
RightForeArm -0.000000 -33.410637 37.203062
RightHand 5.851037 -0.000000 12.350486
RightHandThumb1 -24.326973 -32.862282 -0.000000
LeftUpLeg -15.581914 16.602434 -9.953871
LeftLeg 12.643373 -0.000000 -0.000000
LeftFoot -19.431170 24.272725 -10.143398
LeftToeBase 17.776264 -0.000000 -0.000000
RightUpLeg 6.378990 -7.922173 8.445758
RightLeg 22.806406 -0.000000 -0.000000
RightFoot 11.802533 -26.728140 -4.017002
RightToeBase -29.454742 -0.000000 0.000000
2337
root -4.181958 35.596298 -6.717966 -173.122170 25.062198 -178.403066
Spine -11.072916 24.909787 -18.291197
Head 5.711401 -2.991646 19.483860
LeftShoulder -7.002834 18.355642 1.774362
LeftArm 14.138835 -5.936518 -73.205779
LeftForeArm -0.000000 -2.089345 16.090709
LeftHand 4.541088 -0.000000 1.943449
LeftHandThumb1 -26.253704 33.147579 0.000000
RightShoulder -18.953866 -9.426340 9.955889
RightArm 17.350019 -32.090069 66.843951
RightForeArm -0.000000 -33.215866 36.892906
RightHand 5.852930 -0.000000 12.337599
RightHandThumb1 -24.326973 -32.862282 -0.000000
LeftUpLeg -15.217161 16.905064 -10.308460
LeftLeg 12.200058 -0.000000 -0.000000
LeftFoot -19.144541 23.529630 -10.067195
LeftToeBase 17.625283 -0.000000 -0.000000
RightUpLeg 6.101571 -8.289980 8.107070
RightLeg 23.412913 -0.000000 -0.000000
RightFoot 12.221934 -26.679789 -3.519829
RightToeBase -29.939040 -0.000000 0.000000
2338
root -4.156342 35.605634 -6.864255 -173.183342 24.600412 -178.645011
Spine -10.983611 24.404675 -18.410702
Head 5.767300 -3.082066 19.335732
LeftShoulder -7.031254 18.083526 1.491256
LeftArm 14.513673 -6.217171 -72.866153
LeftForeArm -0.000000 -2.094516 16.016476
LeftHand 4.429538 -0.000000 2.049623
LeftHandThumb1 -26.253704 33.147579 0.000000
RightShoulder -18.888803 -9.466744 9.711656
RightArm 16.890658 -31.805017 67.435417
RightForeArm -0.000000 -33.154117 36.588303
RightHand 5.852909 -0.000000 12.225945
RightHandThumb1 -24.326973 -32.862282 -0.000000
LeftUpLeg -14.847227 17.190263 -10.572251
LeftLeg 11.853020 -0.000000 -0.000000
LeftFoot -18.904291 22.749077 -9.934376
LeftToeBase 17.464065 -0.000000 -0.000000
RightUpLeg 5.854037 -8.751249 7.811881
RightLeg 24.068839 -0.000000 -0.000000
RightFoot 12.613718 -26.507241 -2.998264
RightToeBase -30.201743 -0.000000 0.000000
2339
root -4.132042 35.613557 -7.000425 -173.173410 24.140426 -178.774823
Spine -10.893306 23.920229 -18.418472
Head 5.768978 -3.194110 19.145181
LeftShoulder -6.989305 17.792292 1.284358
LeftArm 14.912651 -6.538841 -72.647184
LeftForeArm -0.000000 -2.149773 15.779447
LeftHand 4.507342 -0.000000 2.174016
LeftHandThumb1 -26.253704 33.147579 0.000000
RightShoulder -18.775091 -9.538566 9.401559
RightArm 16.382394 -31.331730 68.150722
RightForeArm 0.000000 -33.128841 36.290112
RightHand 5.628562 0.000000 12.045923
RightHandThumb1 -24.326973 -32.862282 -0.000000
LeftUpLeg -14.561249 17.518773 -10.742412
LeftLeg 11.586770 -0.000000 -0.000000
LeftFoot -18.727757 21.923911 -9.735888
LeftToeBase 17.416178 -0.000000 -0.000000
RightUpLeg 5.444820 -9.443978 7.539039
RightLeg 24.962412 -0.000000 -0.000000
RightFoot 13.016921 -26.085324 -2.385133
RightToeBase -30.583565 -0.000000 0.000000
2340
root -4.113794 35.619061 -7.111244 -173.018931 23.734933 -178.872038
Spine -10.886038 23.470387 -18.442383
Head 5.708034 -3.271220 18.917340
LeftShoulder -6.882185 17.400679 1.141761
LeftArm 15.205744 -6.889141 -72.551888
LeftForeArm -0.000000 -2.144029 15.689381
LeftHand 4.390816 -0.000000 2.425995
LeftHandThumb1 -26.253704 33.147579 0.000000
RightShoulder -18.653648 -9.651080 9.045957
RightArm 16.021789 -30.917316 68.767844
RightForeArm -0.000000 -33.058427 35.974837
RightHand 5.630820 -0.000000 11.943409
RightHandThumb1 -24.326973 -32.862282 -0.000000
LeftUpLeg -14.485936 17.753806 -10.911048
LeftLeg 11.386842 -0.000000 -0.000000
LeftFoot -18.566989 21.217594 -9.553385
LeftToeBase 17.353637 -0.000000 -0.000000
RightUpLeg 4.764420 -10.029951 7.333527
RightLeg 26.088517 -0.000000 -0.000000
RightFoot 13.181963 -25.647174 -1.674768
RightToeBase -29.721348 -0.000000 0.000000
2341
root -4.102641 35.623261 -7.212335 -172.785590 23.426649 -178.914571
Spine -10.943067 23.098216 -18.441513
Head 5.649989 -3.308009 18.715827
LeftShoulder -6.782588 17.083996 1.063855
LeftArm 15.645039 -7.303396 -72.614635
LeftForeArm -0.000000 -2.191087 15.470046
LeftHand 4.480228 -0.000000 2.495347
LeftHandThumb1 -26.253704 33.147579 0.000000
RightShoulder -18.488390 -9.786490 8.652243
RightArm 15.653702 -30.427574 69.398029
RightForeArm -0.000000 -32.994361 35.703623
RightHand 5.559114 0.000000 11.850394
RightHandThumb1 -24.326973 -32.862282 -0.000000
LeftUpLeg -14.495661 17.953572 -11.050755
LeftLeg 11.199339 -0.000000 -0.000000
LeftFoot -18.430741 20.640313 -9.333803
LeftToeBase 17.272614 -0.000000 -0.000000
RightUpLeg 3.945766 -10.443636 7.200645
RightLeg 27.350469 -0.000000 -0.000000
RightFoot 13.330310 -25.205062 -1.155522
RightToeBase -28.790496 -0.000000 0.000000
